<svg xmlns="http://www.w3.org/2000/svg" viewBox="0 0 400 64"><path d="M6 12 Q200 52 394 12" fill="none" stroke="#9c8a6a" stroke-width="1"></path><circle cx="6" cy="12" r="6.5" fill="#df6054"></circle><circle cx="8" cy="14" r="4.2" fill="#c44c43" opacity=".6"></circle><circle cx="3.8" cy="9.8" r="1.6" fill="#fff" class="fl-shimmer" style="animation-delay:-0.00s"></circle><path d="M18.5 14.6 Q24.5 23.6 30.5 14.6 Q24.5 19.6 18.5 14.6Z" fill="#f4efe4"></path><circle cx="43" cy="18.9" r="6.5" fill="#df6054"></circle><circle cx="45" cy="20.9" r="4.2" fill="#c44c43" opacity=".6"></circle><circle cx="40.8" cy="16.7" r="1.6" fill="#fff" class="fl-shimmer" style="animation-delay:-0.24s"></circle><path d="M55.4 20.8 Q61.4 29.8 67.4 20.8 Q61.4 25.8 55.4 20.8Z" fill="#f4efe4"></path><circle cx="79.9" cy="24.3" r="6.5" fill="#df6054"></circle><circle cx="81.9" cy="26.3" r="4.2" fill="#c44c43" opacity=".6"></circle><circle cx="77.7" cy="22.1" r="1.6" fill="#fff" class="fl-shimmer" style="animation-delay:-0.48s"></circle><path d="M92.4 25.5 Q98.4 34.5 104.4 25.5 Q98.4 30.5 92.4 25.5Z" fill="#f4efe4"></path><circle cx="116.9" cy="28.3" r="6.5" fill="#df6054"></circle><circle cx="118.9" cy="30.3" r="4.2" fill="#c44c43" opacity=".6"></circle><circle cx="114.7" cy="26.1" r="1.6" fill="#fff" class="fl-shimmer" style="animation-delay:-0.72s"></circle><path d="M129.3 28.8 Q135.3 37.8 141.3 28.8 Q135.3 33.8 129.3 28.8Z" fill="#f4efe4"></path><circle cx="153.8" cy="30.9" r="6.5" fill="#df6054"></circle><circle cx="155.8" cy="32.9" r="4.2" fill="#c44c43" opacity=".6"></circle><circle cx="151.6" cy="28.7" r="1.6" fill="#fff" class="fl-shimmer" style="animation-delay:-0.96s"></circle><path d="M166.3 30.6 Q172.3 39.6 178.3 30.6 Q172.3 35.6 166.3 30.6Z" fill="#f4efe4"></path><circle cx="190.8" cy="32" r="6.5" fill="#df6054"></circle><circle cx="192.8" cy="34" r="4.2" fill="#c44c43" opacity=".6"></circle><circle cx="188.6" cy="29.8" r="1.6" fill="#fff" class="fl-shimmer" style="animation-delay:-1.20s"></circle><path d="M203.2 31 Q209.2 40 215.2 31 Q209.2 36 203.2 31Z" fill="#f4efe4"></path><circle cx="227.7" cy="31.6" r="6.5" fill="#df6054"></circle><circle cx="229.7" cy="33.6" r="4.2" fill="#c44c43" opacity=".6"></circle><circle cx="225.5" cy="29.4" r="1.6" fill="#fff" class="fl-shimmer" style="animation-delay:-1.44s"></circle><path d="M240.2 29.9 Q246.2 38.9 252.2 29.9 Q246.2 34.9 240.2 29.9Z" fill="#f4efe4"></path><circle cx="264.7" cy="29.8" r="6.5" fill="#df6054"></circle><circle cx="266.7" cy="31.8" r="4.2" fill="#c44c43" opacity=".6"></circle><circle cx="262.5" cy="27.6" r="1.6" fill="#fff" class="fl-shimmer" style="animation-delay:-1.68s"></circle><path d="M277.1 27.3 Q283.1 36.3 289.1 27.3 Q283.1 32.3 277.1 27.3Z" fill="#f4efe4"></path><circle cx="301.6" cy="26.5" r="6.5" fill="#df6054"></circle><circle cx="303.6" cy="28.5" r="4.2" fill="#c44c43" opacity=".6"></circle><circle cx="299.4" cy="24.3" r="1.6" fill="#fff" class="fl-shimmer" style="animation-delay:-1.92s"></circle><path d="M314.1 23.3 Q320.1 32.3 326.1 23.3 Q320.1 28.3 314.1 23.3Z" fill="#f4efe4"></path><circle cx="338.6" cy="21.8" r="6.5" fill="#df6054"></circle><circle cx="340.6" cy="23.8" r="4.2" fill="#c44c43" opacity=".6"></circle><circle cx="336.4" cy="19.6" r="1.6" fill="#fff" class="fl-shimmer" style="animation-delay:-2.16s"></circle><path d="M351 17.9 Q357 26.9 363 17.9 Q357 22.9 351 17.9Z" fill="#f4efe4"></path><circle cx="375.5" cy="15.6" r="6.5" fill="#df6054"></circle><circle cx="377.5" cy="17.6" r="4.2" fill="#c44c43" opacity=".6"></circle><circle cx="373.3" cy="13.4" r="1.6" fill="#fff" class="fl-shimmer" style="animation-delay:-2.40s"></circle><path d="M388 11 Q394 20 400 11 Q394 16 388 11Z" fill="#f4efe4"></path></svg>