<svg xmlns="http://www.w3.org/2000/svg" viewBox="0 0 400 56"><path d="M6 12 Q200 46 394 12" fill="none" stroke="#2b3b36" stroke-width="1"></path><circle cx="14.1" cy="11.4" r="7" fill="#ffe7a0" fill-opacity=".28" class="fl-fairy" style="animation-delay:-0.00s"></circle><circle cx="14.1" cy="11.4" r="2.4" fill="#fff4cf" class="fl-fairy" style="animation-delay:-0.00s"></circle><circle cx="30.3" cy="19" r="7" fill="#ffe7a0" fill-opacity=".28" class="fl-fairy" style="animation-delay:-0.53s"></circle><circle cx="30.3" cy="19" r="2.4" fill="#fff4cf" class="fl-fairy" style="animation-delay:-0.53s"></circle><circle cx="46.4" cy="16.3" r="7" fill="#ffe7a0" fill-opacity=".28" class="fl-fairy" style="animation-delay:-1.06s"></circle><circle cx="46.4" cy="16.3" r="2.4" fill="#fff4cf" class="fl-fairy" style="animation-delay:-1.06s"></circle><circle cx="62.6" cy="23.5" r="7" fill="#ffe7a0" fill-opacity=".28" class="fl-fairy" style="animation-delay:-1.59s"></circle><circle cx="62.6" cy="23.5" r="2.4" fill="#fff4cf" class="fl-fairy" style="animation-delay:-1.59s"></circle><circle cx="78.8" cy="20.4" r="7" fill="#ffe7a0" fill-opacity=".28" class="fl-fairy" style="animation-delay:-2.12s"></circle><circle cx="78.8" cy="20.4" r="2.4" fill="#fff4cf" class="fl-fairy" style="animation-delay:-2.12s"></circle><circle cx="94.9" cy="27" r="7" fill="#ffe7a0" fill-opacity=".28" class="fl-fairy" style="animation-delay:-0.25s"></circle><circle cx="94.9" cy="27" r="2.4" fill="#fff4cf" class="fl-fairy" style="animation-delay:-0.25s"></circle><circle cx="111.1" cy="23.4" r="7" fill="#ffe7a0" fill-opacity=".28" class="fl-fairy" style="animation-delay:-0.78s"></circle><circle cx="111.1" cy="23.4" r="2.4" fill="#fff4cf" class="fl-fairy" style="animation-delay:-0.78s"></circle><circle cx="127.3" cy="29.6" r="7" fill="#ffe7a0" fill-opacity=".28" class="fl-fairy" style="animation-delay:-1.31s"></circle><circle cx="127.3" cy="29.6" r="2.4" fill="#fff4cf" class="fl-fairy" style="animation-delay:-1.31s"></circle><circle cx="143.4" cy="25.6" r="7" fill="#ffe7a0" fill-opacity=".28" class="fl-fairy" style="animation-delay:-1.84s"></circle><circle cx="143.4" cy="25.6" r="2.4" fill="#fff4cf" class="fl-fairy" style="animation-delay:-1.84s"></circle><circle cx="159.6" cy="31.3" r="7" fill="#ffe7a0" fill-opacity=".28" class="fl-fairy" style="animation-delay:-2.37s"></circle><circle cx="159.6" cy="31.3" r="2.4" fill="#fff4cf" class="fl-fairy" style="animation-delay:-2.37s"></circle><circle cx="175.8" cy="26.7" r="7" fill="#ffe7a0" fill-opacity=".28" class="fl-fairy" style="animation-delay:-0.50s"></circle><circle cx="175.8" cy="26.7" r="2.4" fill="#fff4cf" class="fl-fairy" style="animation-delay:-0.50s"></circle><circle cx="191.9" cy="32" r="7" fill="#ffe7a0" fill-opacity=".28" class="fl-fairy" style="animation-delay:-1.03s"></circle><circle cx="191.9" cy="32" r="2.4" fill="#fff4cf" class="fl-fairy" style="animation-delay:-1.03s"></circle><circle cx="208.1" cy="27" r="7" fill="#ffe7a0" fill-opacity=".28" class="fl-fairy" style="animation-delay:-1.56s"></circle><circle cx="208.1" cy="27" r="2.4" fill="#fff4cf" class="fl-fairy" style="animation-delay:-1.56s"></circle><circle cx="224.3" cy="31.7" r="7" fill="#ffe7a0" fill-opacity=".28" class="fl-fairy" style="animation-delay:-2.09s"></circle><circle cx="224.3" cy="31.7" r="2.4" fill="#fff4cf" class="fl-fairy" style="animation-delay:-2.09s"></circle><circle cx="240.4" cy="26.3" r="7" fill="#ffe7a0" fill-opacity=".28" class="fl-fairy" style="animation-delay:-0.22s"></circle><circle cx="240.4" cy="26.3" r="2.4" fill="#fff4cf" class="fl-fairy" style="animation-delay:-0.22s"></circle><circle cx="256.6" cy="30.6" r="7" fill="#ffe7a0" fill-opacity=".28" class="fl-fairy" style="animation-delay:-0.75s"></circle><circle cx="256.6" cy="30.6" r="2.4" fill="#fff4cf" class="fl-fairy" style="animation-delay:-0.75s"></circle><circle cx="272.8" cy="24.6" r="7" fill="#ffe7a0" fill-opacity=".28" class="fl-fairy" style="animation-delay:-1.28s"></circle><circle cx="272.8" cy="24.6" r="2.4" fill="#fff4cf" class="fl-fairy" style="animation-delay:-1.28s"></circle><circle cx="288.9" cy="28.4" r="7" fill="#ffe7a0" fill-opacity=".28" class="fl-fairy" style="animation-delay:-1.81s"></circle><circle cx="288.9" cy="28.4" r="2.4" fill="#fff4cf" class="fl-fairy" style="animation-delay:-1.81s"></circle><circle cx="305.1" cy="22" r="7" fill="#ffe7a0" fill-opacity=".28" class="fl-fairy" style="animation-delay:-2.34s"></circle><circle cx="305.1" cy="22" r="2.4" fill="#fff4cf" class="fl-fairy" style="animation-delay:-2.34s"></circle><circle cx="321.3" cy="25.4" r="7" fill="#ffe7a0" fill-opacity=".28" class="fl-fairy" style="animation-delay:-0.47s"></circle><circle cx="321.3" cy="25.4" r="2.4" fill="#fff4cf" class="fl-fairy" style="animation-delay:-0.47s"></circle><circle cx="337.4" cy="18.5" r="7" fill="#ffe7a0" fill-opacity=".28" class="fl-fairy" style="animation-delay:-1.00s"></circle><circle cx="337.4" cy="18.5" r="2.4" fill="#fff4cf" class="fl-fairy" style="animation-delay:-1.00s"></circle><circle cx="353.6" cy="21.3" r="7" fill="#ffe7a0" fill-opacity=".28" class="fl-fairy" style="animation-delay:-1.53s"></circle><circle cx="353.6" cy="21.3" r="2.4" fill="#fff4cf" class="fl-fairy" style="animation-delay:-1.53s"></circle><circle cx="369.8" cy="14" r="7" fill="#ffe7a0" fill-opacity=".28" class="fl-fairy" style="animation-delay:-2.06s"></circle><circle cx="369.8" cy="14" r="2.4" fill="#fff4cf" class="fl-fairy" style="animation-delay:-2.06s"></circle><circle cx="385.9" cy="16.4" r="7" fill="#ffe7a0" fill-opacity=".28" class="fl-fairy" style="animation-delay:-0.19s"></circle><circle cx="385.9" cy="16.4" r="2.4" fill="#fff4cf" class="fl-fairy" style="animation-delay:-0.19s"></circle></svg>