<svg xmlns="http://www.w3.org/2000/svg" viewBox="0 0 100 100"><rect x="22" y="46" width="56" height="44" fill="#b565a7"></rect><rect x="52" y="46" width="26" height="44" fill="#944f89"></rect><rect x="18" y="36" width="64" height="13" fill="#c97bbb"></rect><rect x="52" y="36" width="30" height="13" fill="#b565a7"></rect><rect x="45" y="36" width="10" height="54" fill="#e9c25e"></rect><rect x="50" y="36" width="5" height="54" fill="#d6ab45"></rect><path d="M50 36 C40 20 26 22 31 31 C35 37 44 36 50 36 C56 36 65 37 69 31 C74 22 60 20 50 36Z" fill="#e9c25e"></path><path d="M50 36 C60 26 68 26 66 31 C63 35 56 36 50 36Z" fill="#d6ab45"></path><g transform="translate(70 60) scale(1)"><path class="fl-sparkle" style="animation-delay:-0s" d="M0 -7 Q1.2 -1.2 7 0 Q1.2 1.2 0 7 Q-1.2 1.2 -7 0 Q-1.2 -1.2 0 -7Z" fill="#fff6d8"></path></g></svg>