<svg xmlns="http://www.w3.org/2000/svg" viewBox="0 0 20 20" width="80" height="80" shape-rendering="crispEdges"><rect x="7" y="8" width="1" height="1" fill="#fff4c8"/><rect x="6" y="2" width="2" height="1" fill="#6e1a24"/><rect x="9" y="2" width="2" height="1" fill="#6e1a24"/><rect x="12" y="2" width="2" height="1" fill="#6e1a24"/><rect x="5" y="3" width="1" height="1" fill="#6e1a24"/><rect x="6" y="3" width="1" height="1" fill="#c9343a"/><rect x="7" y="3" width="1" height="1" fill="#e0545a"/><rect x="8" y="3" width="1" height="1" fill="#3d0d14"/><rect x="9" y="3" width="1" height="1" fill="#c9343a"/><rect x="10" y="3" width="1" height="1" fill="#9a2530"/><rect x="11" y="3" width="1" height="1" fill="#3d0d14"/><rect x="12" y="3" width="1" height="1" fill="#9a2530"/><rect x="13" y="3" width="1" height="1" fill="#6e1a24"/><rect x="14" y="3" width="1" height="1" fill="#3d0d14"/><rect x="6" y="4" width="2" height="1" fill="#3d0d14"/><rect x="8" y="4" width="1" height="1" fill="#e0545a"/><rect x="9" y="4" width="2" height="1" fill="#c9343a"/><rect x="11" y="4" width="1" height="1" fill="#9a2530"/><rect x="12" y="4" width="2" height="1" fill="#3d0d14"/><rect x="6" y="5" width="1" height="2" fill="#6e4a14"/><rect x="7" y="5" width="1" height="1" fill="#f3d27a"/><rect x="8" y="5" width="3" height="1" fill="#fff4c8"/><rect x="11" y="5" width="1" height="2" fill="#f3d27a"/><rect x="12" y="5" width="1" height="2" fill="#6e4a14"/><rect x="13" y="5" width="1" height="2" fill="#3d280a"/><rect x="7" y="6" width="4" height="2" fill="#fff4c8"/><rect x="5" y="7" width="1" height="3" fill="#6e4a14"/><rect x="6" y="7" width="1" height="1" fill="#f3d27a"/><rect x="11" y="7" width="2" height="1" fill="#c99a2e"/><rect x="13" y="7" width="1" height="3" fill="#6e4a14"/><rect x="14" y="7" width="1" height="3" fill="#3d280a"/><rect x="6" y="8" width="1" height="1" fill="#fff4c8"/><rect x="7" y="8" width="1" height="1" fill="#fff4c8" class="px-glint px-d1"/><rect x="8" y="8" width="2" height="1" fill="#fff4c8"/><rect x="10" y="8" width="2" height="5" fill="#f3d27a"/><rect x="12" y="8" width="1" height="1" fill="#a0701e"/><rect x="6" y="9" width="4" height="2" fill="#fff4c8"/><rect x="12" y="9" width="1" height="1" fill="#c99a2e"/><rect x="4" y="10" width="1" height="2" fill="#6e4a14"/><rect x="5" y="10" width="1" height="1" fill="#f3d27a"/><rect x="12" y="10" width="2" height="2" fill="#c99a2e"/><rect x="14" y="10" width="1" height="2" fill="#6e4a14"/><rect x="15" y="10" width="1" height="2" fill="#3d280a"/><rect x="5" y="11" width="5" height="2" fill="#fff4c8"/><rect x="3" y="12" width="1" height="1" fill="#6e4a14"/><rect x="4" y="12" width="1" height="1" fill="#f3d27a"/><rect x="12" y="12" width="3" height="1" fill="#c99a2e"/><rect x="15" y="12" width="1" height="1" fill="#6e4a14"/><rect x="16" y="12" width="1" height="1" fill="#3d280a"/><rect x="2" y="13" width="1" height="4" fill="#6e4a14"/><rect x="3" y="13" width="1" height="1" fill="#f3d27a"/><rect x="4" y="13" width="5" height="1" fill="#fff4c8"/><rect x="9" y="13" width="4" height="1" fill="#f3d27a"/><rect x="13" y="13" width="2" height="1" fill="#c99a2e"/><rect x="15" y="13" width="1" height="2" fill="#a0701e"/><rect x="16" y="13" width="1" height="3" fill="#6e4a14"/><rect x="17" y="13" width="1" height="4" fill="#3d280a"/><rect x="3" y="14" width="6" height="1" fill="#fff4c8"/><rect x="9" y="14" width="2" height="1" fill="#f3d27a"/><rect x="11" y="14" width="4" height="1" fill="#c99a2e"/><rect x="3" y="15" width="4" height="1" fill="#fff4c8"/><rect x="7" y="15" width="3" height="1" fill="#f3d27a"/><rect x="10" y="15" width="3" height="1" fill="#c99a2e"/><rect x="13" y="15" width="3" height="1" fill="#a0701e"/><rect x="3" y="16" width="3" height="1" fill="#a0701e"/><rect x="6" y="16" width="11" height="1" fill="#6e4a14"/><rect x="3" y="17" width="6" height="1" fill="#3d280a"/><rect x="9" y="17" width="1" height="1" fill="#a0701e"/><rect x="10" y="17" width="1" height="1" fill="#6e4a14"/><rect x="11" y="17" width="6" height="1" fill="#3d280a"/><rect x="9" y="18" width="2" height="1" fill="#3d280a"/></svg>